<?xml version="1.0" encoding="UTF-8" standalone="no"?>
<svg xmlns:rdf="http://www.w3.org/1999/02/22-rdf-syntax-ns#" xmlns="http://www.w3.org/2000/svg" xml:space="preserve" height="181.07" viewBox="0 0 567.49329 181.07336" width="567.49" version="1.1" xmlns:cc="http://creativecommons.org/ns#" xmlns:xlink="http://www.w3.org/1999/xlink" xmlns:dc="http://purl.org/dc/elements/1.1/"><defs><clipPath id="d" clipPathUnits="userSpaceOnUse"><path d="m0 0h510v226h-510v-226z"/></clipPath><clipPath id="c" clipPathUnits="userSpaceOnUse"><rect fill-opacity=".68675" transform="scale(1,-1)" height="153.63" width="465.34" stroke="#000" y="-234.77" x="-11.341" stroke-width="0.785" fill="#fff"/></clipPath><linearGradient id="b" y2="-144.35" gradientUnits="userSpaceOnUse" x2="101.1" gradientTransform="matrix(4 0 0 1 -225.13 0)" y1="-144.35" x1="75.043"><stop stop-color="#0d0d0d" offset="0"/><stop stop-color="#777" offset=".25"/><stop stop-color="#fff" offset=".25478"/><stop stop-color="#fff" offset="1"/></linearGradient><mask id="a" maskUnits="userSpaceOnUse"><rect transform="scale(1,-1)" height="125.07" width="104.23" y="-206.89" x="75.043" fill="url(#b)"/></mask></defs><g transform="matrix(1.25,0,0,-1.25,0,282.5)" clip-path="url(#c)"><g clip-path="url(#d)"><g mask="url(#a)"><path d="m178 198h-100v-100.66l13.34-13.34h86.66v114z" fill="#fff"/><path d="m91.34 84-2.668 10.672-10.672 2.668 13.34-13.34z" fill="#cdcdcd"/><g transform="matrix(-.000078740 0 0 -.000078740 178 198)"><path stroke-linejoin="round" d="m1.1006e6 1.4478e6 33883-1.3554e5 1.3554e5 -33883-1.6942e5 1.6942e5h-1.1006e6v-1.4478e6h1.27e6v1.2784e6" stroke="#000" stroke-miterlimit="10" stroke-width="25400" fill="none"/></g><g transform="matrix(-.000078740 0 0 -.000078740 178 164)"><path stroke-linejoin="round" d="m0 0h3.302e5v2.54e5h-3.302e5v-2.54e5z" stroke="#000" stroke-miterlimit="10" stroke-width="25400" fill="none"/></g><g transform="matrix(-.000078740 0 0 -.000078740 152 164)"><path stroke-linejoin="round" d="m0 0h3.175e5v2.54e5h-3.175e5v-2.54e5z" stroke="#000" stroke-miterlimit="10" stroke-width="25400" fill="none"/></g><path d="m127 164h-25v-20h25v20z" fill="#f00"/><g transform="matrix(-.000078740 0 0 -.000078740 127 164)"><path stroke-linejoin="round" d="m0 0h3.175e5v2.54e5h-3.175e5v-2.54e5z" stroke="#000" stroke-miterlimit="10" stroke-width="25400" fill="none"/></g><g transform="matrix(-.000078740 0 0 -.000078740 102 164)"><path stroke-linejoin="round" d="m0 0h3.048e5v2.54e5h-3.048e5v-2.54e5z" stroke="#000" stroke-miterlimit="10" stroke-width="25400" fill="none"/></g><g transform="matrix(-.000078740 0 0 -.000078740 178 184)"><path stroke-linejoin="round" d="m0 0h3.302e5v2.54e5h-3.302e5v-2.54e5z" stroke="#000" stroke-miterlimit="10" stroke-width="25400" fill="none"/></g><g transform="matrix(-.000078740 0 0 -.000078740 152 184)"><path stroke-linejoin="round" d="m0 0h3.175e5v2.54e5h-3.175e5v-2.54e5z" stroke="#000" stroke-miterlimit="10" stroke-width="25400" fill="none"/></g><path d="m127 184h-25v-20h25v20z" fill="#f79646"/><g transform="matrix(-.000078740 0 0 -.000078740 127 184)"><path stroke-linejoin="round" d="m0 0h3.175e5v2.54e5h-3.175e5v-2.54e5z" stroke="#000" stroke-miterlimit="10" stroke-width="25400" fill="none"/></g><g transform="matrix(-.000078740 0 0 -.000078740 102 184)"><path stroke-linejoin="round" d="m0 0h3.048e5v2.54e5h-3.048e5v-2.54e5z" stroke="#000" stroke-miterlimit="10" stroke-width="25400" fill="none"/></g><g transform="matrix(-.000078740 0 0 -.000078740 178 144)"><path stroke-linejoin="round" d="m0 0h3.302e5v2.54e5h-3.302e5v-2.54e5z" stroke="#000" stroke-miterlimit="10" stroke-width="25400" fill="none"/></g><g transform="matrix(-.000078740 0 0 -.000078740 152 144)"><path stroke-linejoin="round" d="m0 0h3.175e5v2.54e5h-3.175e5v-2.54e5z" stroke="#000" stroke-miterlimit="10" stroke-width="25400" fill="none"/></g><path d="m127 144h-25v-20h25v20z" fill="#4f81bd"/><g transform="matrix(-.000078740 0 0 -.000078740 127 144)"><path stroke-linejoin="round" d="m0 0h3.175e5v2.54e5h-3.175e5v-2.54e5z" stroke="#000" stroke-miterlimit="10" stroke-width="25400" fill="none"/></g><g transform="matrix(-.000078740 0 0 -.000078740 102 144)"><path stroke-linejoin="round" d="m0 0h3.048e5v2.54e5h-3.048e5v-2.54e5z" stroke="#000" stroke-miterlimit="10" stroke-width="25400" fill="none"/></g><g transform="matrix(-.000078740 0 0 -.000078740 178 125)"><path stroke-linejoin="round" d="m0 0h3.302e5v2.54e5h-3.302e5v-2.54e5z" stroke="#000" stroke-miterlimit="10" stroke-width="25400" fill="none"/></g><g transform="matrix(-.000078740 0 0 -.000078740 152 125)"><path stroke-linejoin="round" d="m0 0h3.175e5v2.54e5h-3.175e5v-2.54e5z" stroke="#000" stroke-miterlimit="10" stroke-width="25400" fill="none"/></g><path d="m127 125h-25v-20h25v20z" fill="#fc9a99"/><g transform="matrix(-.000078740 0 0 -.000078740 127 125)"><path stroke-linejoin="round" d="m0 0h3.175e5v2.54e5h-3.175e5v-2.54e5z" stroke="#000" stroke-miterlimit="10" stroke-width="25400" fill="none"/></g><g transform="matrix(-.000078740 0 0 -.000078740 102 125)"><path stroke-linejoin="round" d="m0 0h3.048e5v2.54e5h-3.048e5v-2.54e5z" stroke="#000" stroke-miterlimit="10" stroke-width="25400" fill="none"/></g><g transform="matrix(-.000078740 0 0 -.000078740 178 104)"><path stroke-linejoin="round" d="m0 0h3.302e5v2.54e5h-3.302e5v-2.54e5z" stroke="#000" stroke-miterlimit="10" stroke-width="25400" fill="none"/></g><g transform="matrix(-.000078740 0 0 -.000078740 152 104)"><path stroke-linejoin="round" d="m0 0h3.175e5v2.54e5h-3.175e5v-2.54e5z" stroke="#000" stroke-miterlimit="10" stroke-width="25400" fill="none"/></g><path d="m127 104h-25v-20h25v20z" fill="#9bbb59"/><g transform="matrix(-.000078740 0 0 -.000078740 127 104)"><path stroke-linejoin="round" d="m0 0h3.175e5v2.54e5h-3.175e5v-2.54e5z" stroke="#000" stroke-miterlimit="10" stroke-width="25400" fill="none"/></g><path d="m178 198h-100v-14h100v14z" fill="#7f7f7f"/><g transform="matrix(-.000078740 0 0 -.000078740 178 198)"><path stroke-linejoin="round" d="m0 0h1.27e6v1.778e5h-1.27e6v-1.778e5z" stroke="#000" stroke-miterlimit="10" stroke-width="25400" fill="none"/></g></g><g transform="translate(181.13 105.77)"><g transform="scale(1,-1)"><path style="" d="m61.172-64.781-0.60938 4.3125q-6.5625-1.4531-12-1.4531-17.859 0-28.875 9.9844-10.969 9.9375-10.969 24.75 0 10.359 6.4688 17.016 6.4688 6.6094 16.594 6.6094 6.9844 0 15.844-4.4062l2.1094-14.578h-14.672l0.5625-4.4062h19.172l-2.9531 21.188q-9.9375 6.6094-20.625 6.6094-11.203 0-19.359-7.8281-8.111-7.8293-8.111-20.579 0-15.891 12.516-27.328 12.516-11.438 32.672-11.438 6.3281 0 12.234 1.5469z"/><path style="" d="m72.173-43.125-1.6406 11.812 0.1875 0.1875q5.0156-7.2656 8.1562-10.031 3.1875-2.8125 6.9844-2.8125 2.25 0 4.2656 0.84375v4.2656q-2.4375-1.1719-4.4531-1.1719-4.4531 0-10.125 6.7969-5.6719 6.75-5.8125 7.5938l-3.61 25.641h-4.2656l6.0469-43.125h4.2656z"/><path style="" d="m125.52-43.125-6.05 43.125h-4.2188l0.65625-5.1094q-6.8438 5.9531-14.766 5.9531-6.5156 0-10.781-4.875-4.2656-4.875-4.2656-12.375 0-11.25 8.4375-19.406 8.4375-8.1562 22.172-8.1562 4.9688 0 8.8125 0.84375zm-8.9062 33.141 4.3125-30.234q-2.2969-0.5625-5.2969-0.5625-10.266 0-17.672 7.125-7.3594 7.0781-7.3594 17.812 0 6 3.0469 9.6094 3.0938 3.5625 8.1563 3.5625 7.2656 0 14.812-7.3125z"/><path style="" d="m145.97-51.844-1.5 11.062q5.5781-3.1875 10.641-3.1875 7.6875 0 12.516 5.4375 4.875 5.4375 4.875 14.062 0 10.781-7.2188 18.047-7.2188 7.2656-20.531 7.2656-3.4688 0-6.0469-0.28125l-3 20.672h-4.2188l7.875-55.594q-3.0469 2.625-5.4375 6.0938-2.3906 3.4219-2.8125 3.4219-0.5625 0-0.5625-0.89062 0-1.875 2.7656-5.6719t6.5156-6.6094l1.9219-13.828h4.2188zm-2.0156 14.484-4.875 34.781q2.8594 0.32812 5.4844 0.32812 11.391 0 17.391-6.0938t6-16.031q0-7.1719-3.7969-11.391-3.7969-4.2656-10.078-4.2656-4.9219 0-10.125 2.6719z"/><path style="" d="m192.66-65.484-4.3125 31.125 0.1875 0.1875q9-9.7969 16.969-9.7969 4.9688 0 7.9688 3.1406 3.0469 3.0938 3.0469 8.1094 0 1.0781-0.14062 2.2031l-4.31 30.516h-4.2656l4.125-30.047q0.1875-1.1719 0.1875-2.2031 0-3.75-2.0156-5.7656t-5.25-2.0156q-7.875 0-17.391 11.578l-4.03 28.453h-4.2188l9.2344-65.484h4.2188z"/></g></g><g transform="translate(402.13 105.77)"><g transform="scale(1,-1)"><path style="" d="m29.391-32.766 0.375 1.6406 0.375 1.5938q1.6406 6.9375 3.5625 12.094 1.9219 5.1094 4.2656 8.9531 2.3438 3.7969 5.2969 6.6094l-3.5625 3.1406q-3.9375-3.8438-7.1719-10.359-1.9219-3.9375-3.1875-7.7812-1.2656-3.8906-2.8594-10.688l-0.095-0.282-1.829 3.094q-4.5 7.5938-7.9688 12.094-3.468 4.4529-7.218 7.5466-6.7031 5.4844-12.562 6.0469l1.1719-5.9531q0.375 0.046875 0.79688 0.046875 2.3438 0 5.5781-1.2656 3.2812-1.3125 5.7188-3.1406 5.8125-4.4062 11.625-13.688l4.125-6.6094 0.14062-0.1875-0.09375-0.28125q-2.392-11.015-5.11-17.859-2.7188-6.8906-5.9062-9.7969l3.5625-3.7969q5.8125 6.4688 9.6094 22.922l0.42188 1.875 0.46875 1.9219 0.9375-1.6406 0.98438-1.6875q6.1406-10.219 9.1406-14.25 7.5-10.172 15-10.266l-1.125 5.3438q-1.125-0.09375-1.3125-0.09375-4.3594 0-9.1406 4.5-2.0625 2.0156-4.6406 5.4844-2.5312 3.4688-6.2812 9.6094l-1.5469 2.5781-1.5469 2.5312z"/></g></g><g transform="matrix(-.000078740 0 0 -.000078740 102.53 174)"><path stroke-linejoin="round" d="m0.0081177 0 6.9254e5 2.8236e5" stroke="#000" stroke-miterlimit="10" stroke-width="25400" fill="none"/></g><g transform="matrix(.000078740 0 0 -.000078740 24 172)"><path stroke-linejoin="round" d="m0 0 1.4687e5 2.5857e5" stroke="#000" stroke-miterlimit="10" stroke-width="25400" fill="none"/></g><g transform="matrix(.000078740 0 0 .000078740 16 122.97)"><path stroke-linejoin="round" d="m0-0.036194 2.5238e5 2.1632e5" stroke="#000" stroke-miterlimit="10" stroke-width="25400" fill="none"/></g><g transform="matrix(-.000078740 0 0 -.000078740 102.37 115)"><path stroke-linejoin="round" d="m-0.021637 0 5.6346e5 2.0317e5" stroke="#000" stroke-miterlimit="10" stroke-width="25400" fill="none"/></g><g transform="matrix(.000078740 0 0 -.000078740 48 140)"><path stroke-linejoin="round" d="m0 0 49959 4.876e5" stroke="#000" stroke-miterlimit="10" stroke-width="25400" fill="none"/></g><path d="m50 146c0 4.9706-3.8056 9-8.5 9s-8.5-4.0294-8.5-9 3.8056-9 8.5-9 8.5 4.0294 8.5 9z" fill="#f00"/><g transform="matrix(-.000078740 0 0 -.000078740 50 155)"><path stroke-linejoin="round" d="m0 1.143e5c0-63126 48331-1.143e5 1.0795e5 -1.143e5s1.0795e5 51174 1.0795e5 1.143e5 -48331 1.143e5 -1.0795e5 1.143e5 -1.0795e5 -51170-1.0795e5 -1.143e5z" stroke="#000" stroke-miterlimit="10" stroke-width="25400" fill="none"/></g><path d="m33 181c0 4.9706-4.0294 9-9 9s-9-4.0294-9-9 4.0294-9 9-9 9 4.0294 9 9z" fill="#604a7b"/><g transform="matrix(-.000078740 0 0 -.000078740 33 190)"><path stroke-linejoin="round" d="m0 1.143e5c0-63126 51174-1.143e5 1.143e5 -1.143e5s1.143e5 51174 1.143e5 1.143e5 -51174 1.143e5 -1.143e5 1.143e5 -1.143e5 -51170-1.143e5 -1.143e5z" stroke="#000" stroke-miterlimit="10" stroke-width="25400" fill="none"/></g><path d="m60 92.5c0 4.6944-3.8056 8.5-8.5 8.5s-8.5-3.8056-8.5-8.5 3.8056-8.5 8.5-8.5 8.5 3.8056 8.5 8.5z" fill="#d99694"/><g transform="matrix(-.000078740 0 0 -.000078740 60 101)"><path stroke-linejoin="round" d="m0 1.0795e5c0-59619 48331-1.0795e5 1.0795e5 -1.0795e5s1.0795e5 48331 1.0795e5 1.0795e5 -48331 1.0795e5 -1.0795e5 1.0795e5 -1.0795e5 -48330-1.0795e5 -1.0795e5z" stroke="#000" stroke-miterlimit="10" stroke-width="25400" fill="none"/></g><path d="m18 116.5c0 4.6944-3.8056 8.5-8.5 8.5s-8.5-3.8056-8.5-8.5 3.8056-8.5 8.5-8.5 8.5 3.8056 8.5 8.5z" fill="#9bbb59"/><g transform="matrix(-.000078740 0 0 -.000078740 18 125)"><path stroke-linejoin="round" d="m0 1.0795e5c0-59619 48331-1.0795e5 1.0795e5 -1.0795e5s1.0795e5 48331 1.0795e5 1.0795e5 -48331 1.0795e5 -1.0795e5 1.0795e5 -1.0795e5 -48330-1.0795e5 -1.0795e5z" stroke="#000" stroke-miterlimit="10" stroke-width="25400" fill="none"/></g><g transform="matrix(-.000078740 0 0 .000078740 102.68 134.3)"><path stroke-linejoin="round" d="m0.036743-0.014465 8.849e5 5.9311e5" stroke="#000" stroke-miterlimit="10" stroke-width="25400" fill="none"/></g><g transform="matrix(-.000078740 0 0 .000078740 42.855 93.107)"><path stroke-linejoin="round" d="m0.017654-0.012878 3.1566e5 3.0345e5" stroke="#000" stroke-miterlimit="10" stroke-width="25400" fill="none"/></g></g></g></svg>
